<svg width="183" height="90" viewBox="0 0 183 90" fill="none" xmlns="http://www.w3.org/2000/svg">
<path d="M82.4215 3.23535V11.6759V16.9056C76.4864 16.9299 71.0864 19.2043 67.0242 22.9259L63.862 21.2232L65.5039 24.4462C62.3418 27.9245 60.2377 32.3637 59.6783 37.2772H53.8647C55.1174 23.4975 66.0756 12.5272 79.8431 11.2502L79.9039 11.1651L82.4215 3.23535Z" fill="#3E3E40"/>
<path d="M85.0747 11.2378V17.0391C90.0004 17.5864 94.4639 19.6783 97.9544 22.8283L100.958 21.3081L99.4625 24.3243C102.673 27.8148 104.826 32.3027 105.386 37.2648H111.199C109.934 23.4486 98.9152 12.4418 85.0747 11.2378Z" fill="#3E3E40"/>
<path d="M119.139 39.7949L111.209 42.4706C109.981 56.3233 98.9377 67.3665 85.085 68.5828V62.7692C90.0593 62.2219 94.5715 60.0814 98.0742 56.8706L100.969 58.3422L99.5214 55.4233C103.267 51.3368 105.542 45.8882 105.542 39.9044V39.7949H110.698H119.139Z" fill="#2C419A"/>
<path d="M82.4208 67.926V76.3665L79.9519 68.5706C66.0992 67.3422 55.0681 56.299 53.8641 42.4463L46.0073 39.7949H54.4479H59.5316V39.9044C59.5316 45.8274 61.7695 51.2395 65.4546 55.3138L63.9587 58.5003L66.9627 56.8463C71.0371 60.5922 76.4614 62.8909 82.4208 62.9152V67.926Z" fill="#2C419A"/>
<path d="M100.278 42.3242C100.169 41.9472 100.035 41.9229 99.7186 42.081C98.2469 42.7864 97.128 43.881 96.1672 45.1702C95.7537 45.7296 95.3645 46.3134 95.0361 47.0188C95.7294 46.9337 96.3496 46.8607 97.0672 46.7756C96.2767 48.0769 95.3888 49.135 94.2942 49.9985C93.455 50.6553 92.555 51.1661 91.5577 51.4458C91.6672 51.2147 91.7767 50.9837 91.8861 50.7526C91.9104 50.7039 91.9226 50.6431 91.9591 50.5702C91.5456 50.6674 91.1321 50.7526 90.7186 50.8377C89.8672 51.008 89.028 51.1418 88.1645 51.2269C88.2375 51.2026 88.3226 51.1783 88.3956 51.1661C89.2226 51.0202 90.0496 50.8377 90.8645 50.6188C91.2294 50.5215 91.6064 50.412 91.9713 50.3026C92.0442 50.2783 92.1294 50.2053 92.1537 50.1445C92.4577 49.3539 92.7618 48.5512 93.0537 47.7485C93.151 47.4931 93.1145 47.4445 92.8591 47.3472C91.3023 46.7877 89.7091 46.362 88.0794 46.0458C86.8023 45.7904 85.5132 45.608 84.224 45.4742C84.1145 45.462 83.9929 45.4499 83.8834 45.4377C83.4942 45.4012 83.105 45.3283 82.7159 45.3647C82.2659 45.4134 81.8159 45.462 81.3537 45.5107C80.3929 45.6202 79.4321 45.7418 78.4834 45.8877C76.5375 46.1918 74.628 46.6783 72.7794 47.3593C72.5605 47.4445 72.5118 47.5053 72.5969 47.7242C72.8888 48.5269 73.1929 49.3175 73.4848 50.1202C73.5213 50.2296 73.5942 50.2904 73.7037 50.3147C74.0564 50.412 74.4213 50.4972 74.774 50.5945C75.1267 50.6918 75.4915 50.7769 75.8442 50.8742C76.3915 51.008 76.951 51.1053 77.4983 51.2269C76.6469 51.1418 75.7956 51.008 74.9442 50.8377C74.5307 50.7526 74.1172 50.6674 73.7037 50.5702C73.728 50.6431 73.7402 50.6796 73.7645 50.7283C73.874 50.9593 73.9834 51.2026 74.0929 51.4337C71.9402 50.8012 69.5686 48.8431 68.6442 46.7756C69.301 46.8607 69.9213 46.9458 70.651 47.031C69.4956 44.9512 68.1213 43.2242 66.0415 42.1296C65.555 41.8742 65.4213 42.0323 65.324 42.4945C64.8132 44.7688 65.2632 46.9215 66.078 49.135C66.4672 48.5391 66.8077 48.0283 67.1605 47.481C67.2213 47.5661 67.2699 47.6269 67.2942 47.6999C68.7659 51.312 71.405 53.5742 75.0902 54.7904C75.5645 54.9485 76.0267 55.1066 76.4888 55.2891C76.6348 55.3377 76.7686 55.3985 76.9145 55.4593C78.7996 55.8607 80.6969 56.0674 82.6186 56.0796H82.7645V53.5134C82.7645 52.662 82.7645 51.8229 82.7645 50.9715C82.7645 50.1202 82.7767 49.2688 82.7888 48.4175C82.801 47.5783 82.8132 46.7269 82.8375 45.8877C82.8618 45.8877 82.8861 45.8877 82.9105 45.8877V56.0553C82.9469 56.0674 82.9591 56.0796 82.9713 56.0796C83.0199 56.0796 83.0686 56.0796 83.1172 56.0796C85.0753 56.0674 87.0091 55.8485 88.9064 55.435C89.028 55.3864 89.1496 55.3377 89.2713 55.2891C89.8186 55.0702 90.378 54.8756 90.9375 54.681C93.6496 53.7566 95.8145 52.1634 97.3713 49.7431C97.8213 49.0377 98.1618 48.2837 98.5145 47.4566C98.8794 48.0283 99.2199 48.5512 99.5604 49.0864C100.448 47.3472 100.789 44.1364 100.278 42.3242ZM66.674 47.408C66.5402 47.6512 66.3699 47.8945 66.1875 48.162C65.3969 46.435 65.1537 44.2458 65.6402 42.8958C66.0294 44.2458 66.4794 45.4985 66.9537 46.7391C67.0632 47.0188 66.7956 47.1891 66.674 47.408ZM74.8469 52.9296C73.424 52.6256 72.2321 51.8593 71.174 50.8134C71.4294 50.6918 71.5753 50.9107 71.7456 51.008C72.6091 51.5553 73.5091 52.0053 74.4821 52.2607C74.8591 52.358 75.2483 52.4188 75.6618 52.4431C76.0632 52.4675 76.1604 52.735 76.2942 53.0756C75.7834 53.0877 75.3091 53.0391 74.8469 52.9296ZM90.7429 52.9174C90.2564 53.0269 89.7699 53.0756 89.3199 53.0512C89.4294 52.7715 89.4659 52.4796 89.8429 52.4553C90.2807 52.431 90.7064 52.358 91.1077 52.2485C92.0929 51.9931 92.9929 51.5431 93.8686 50.9837C93.9415 50.935 94.0267 50.8499 94.124 50.935C93.601 51.7985 92.1659 52.6012 90.7429 52.9174ZM99.4145 48.2107C99.1348 47.7729 98.9037 47.408 98.6726 47.0431C98.5996 46.9337 98.5875 46.8242 98.6361 46.7147C99.1226 45.4864 99.5483 44.2337 99.974 42.981C100.424 44.7566 100.059 46.435 99.4145 48.2107Z" fill="#3C3C3D"/>
<path d="M92.1391 32.5947C91.6526 31.9623 90.7283 31.7312 90.0958 32.2177C89.6094 32.5947 89.1229 32.6312 88.5756 32.6191C88.1256 32.6069 87.6756 32.5826 87.2256 32.6191C86.1918 32.7285 85.2431 32.0839 84.1972 32.2907C83.9418 32.3393 83.9783 32.0839 83.9661 31.9137C83.9418 31.0137 83.954 30.1137 83.8931 29.2137C83.8688 28.8245 83.9783 28.642 84.3431 28.4596C86.131 27.5718 86.7999 25.4434 85.8756 23.7042C85.158 22.3542 83.6864 21.6366 82.1783 21.8799C80.7188 22.1231 79.5634 23.315 79.3323 24.7866C79.1013 26.3069 79.831 27.742 81.1931 28.4596C81.3999 28.5691 81.704 28.5569 81.6918 28.9339C81.6431 29.9556 81.631 30.965 81.5945 31.9866C81.5945 32.1569 81.5702 32.3272 81.3513 32.2907C80.1594 32.1204 79.0526 32.8015 77.8607 32.6191C77.4594 32.5583 77.0337 32.5947 76.6323 32.6069C76.2553 32.6191 75.9391 32.5583 75.6229 32.2907C74.9904 31.7556 74.054 31.8893 73.5067 32.4975C72.9715 33.0934 72.9837 34.0542 73.531 34.638C74.0904 35.2339 75.0269 35.3312 75.6594 34.8083C75.9391 34.565 76.2188 34.5042 76.5594 34.5042C77.3013 34.5164 78.0553 34.5529 78.785 34.492C79.5269 34.4434 80.1472 35.015 80.9134 34.8204C81.3999 34.6866 81.5337 34.942 81.5094 35.4164C81.4607 36.2556 81.4972 37.0947 81.4972 38.0677C81.935 36.5596 82.3364 35.1975 82.7256 33.8353C82.7621 33.8475 82.7985 33.8596 82.835 33.8718C83.2364 35.2583 83.6377 36.6326 84.0634 38.0677C84.0634 37.0704 84.0634 36.1583 84.0634 35.2339C84.0634 35.088 83.9783 34.7839 84.2458 34.8447C85.1458 35.015 85.9364 34.5042 86.7999 34.5164C87.481 34.5164 88.1742 34.5285 88.8553 34.5164C89.2688 34.5042 89.6215 34.5529 89.9742 34.8569C90.5823 35.3677 91.5067 35.2339 92.0418 34.638C92.5769 34.0785 92.6134 33.1907 92.1391 32.5947ZM74.0053 34.3096C73.8715 34.3096 73.7499 34.261 73.6526 34.1637C73.6404 34.1637 73.6283 34.1515 73.6161 34.1515L73.6283 34.1393C73.4823 33.9934 73.385 33.7623 73.385 33.4947C73.385 33.1664 73.531 32.8866 73.7499 32.7529C73.7621 32.7407 73.7621 32.7285 73.7742 32.7164V32.7285C73.8472 32.692 73.9202 32.6677 73.9931 32.6677C74.0053 32.6677 74.0175 32.6677 74.0418 32.6677C73.8472 32.7285 73.6891 32.9231 73.6283 33.1785C73.6161 33.2272 73.6161 33.2637 73.604 33.3123C73.604 33.361 73.5918 33.3975 73.5918 33.4461C73.5918 33.8596 73.8229 34.2123 74.1148 34.2488C74.0783 34.2975 74.0418 34.3096 74.0053 34.3096ZM82.7985 27.4258C81.6431 27.4258 80.7067 26.5137 80.6823 25.3704C80.6702 24.2029 81.631 23.242 82.7985 23.2542C83.954 23.2664 84.8783 24.1907 84.8783 25.3461C84.8783 26.4893 83.954 27.4258 82.7985 27.4258ZM91.9445 34.2488C91.9323 34.261 91.9323 34.2731 91.9202 34.2731C91.8107 34.3704 91.6891 34.4312 91.5431 34.4312C91.5067 34.4312 91.458 34.4312 91.4215 34.4191C91.6283 34.3947 91.7985 34.2245 91.8958 33.9812C91.9202 33.8839 91.9445 33.7866 91.9688 33.6772C91.9688 33.6407 91.981 33.592 91.981 33.5434C91.981 33.4947 91.981 33.4461 91.9688 33.3975C91.9688 33.3488 91.9567 33.3002 91.9445 33.2515C91.8715 32.9718 91.7012 32.7529 91.4945 32.692C91.5067 32.692 91.531 32.692 91.5431 32.692C91.6283 32.692 91.7134 32.7164 91.7864 32.7529C91.7985 32.7529 91.8107 32.765 91.8107 32.765C92.0418 32.8988 92.1999 33.2029 92.1999 33.5677C92.1999 33.8475 92.1026 34.0907 91.9445 34.2488Z" fill="#3E3E40"/>
<path d="M82.9592 44.988C82.8376 44.988 82.7403 44.988 82.6186 44.988C82.6186 44.915 82.6186 44.8542 82.6186 44.7934C82.6186 43.7353 82.6186 42.665 82.6186 41.6069C82.6186 41.315 82.5335 41.2299 82.2416 41.2299C80.843 41.2299 79.4565 41.2299 78.0578 41.2299C77.7051 41.2299 77.547 41.3515 77.4497 41.692C77.0605 43.0542 76.6713 44.4164 76.2822 45.7785C76.2457 45.9001 76.197 45.9488 76.0754 45.9731C75.9173 45.9974 75.7713 46.0461 75.6011 46.0826C75.6254 45.9731 75.6497 45.8758 75.6862 45.7907C76.0997 44.3434 76.5132 42.9082 76.9268 41.461C77.0727 40.938 77.4254 40.6704 77.9605 40.6704C81.1835 40.6704 84.3943 40.6704 87.6173 40.6704C88.1524 40.6704 88.5051 40.938 88.6632 41.461C89.0889 42.9569 89.5268 44.465 89.9524 45.9609C89.9646 45.9974 89.9646 46.0339 89.9768 46.0826C89.7822 46.0339 89.5997 45.9974 89.4173 45.9366C89.3686 45.9245 89.3322 45.8393 89.3078 45.7785C88.9186 44.4164 88.5295 43.0542 88.1403 41.7042C88.043 41.3515 87.8849 41.242 87.52 41.2299C86.1335 41.2299 84.747 41.2299 83.3484 41.2299C83.0443 41.2299 82.9713 41.3028 82.9713 41.6191C82.9713 42.6772 82.9713 43.7353 82.9713 44.7934C82.9592 44.8542 82.9592 44.915 82.9592 44.988Z" fill="#3C3C3D"/>
<path d="M88.796 55.7874C88.7716 55.7995 88.7473 55.8238 88.7108 55.836C87.0324 56.5901 85.3541 57.3441 83.6757 58.086C83.4203 58.1955 83.1649 58.3171 82.9095 58.4265C82.8365 58.463 82.7392 58.463 82.6662 58.4265C82.4108 58.3171 82.1554 58.1955 81.9 58.086C80.2095 57.3319 78.5311 56.5779 76.8527 55.8238C76.8284 55.8117 76.8041 55.7995 76.7676 55.7874C77.2541 55.8847 77.7527 55.9698 78.2514 56.0428C79.7351 56.2617 81.2189 56.3833 82.7392 56.3833V57.9522H82.8122V56.3833C84.3689 56.3833 85.877 56.2617 87.3851 56.0306C87.8595 55.9698 88.3338 55.8847 88.796 55.7874Z" fill="#3C3C3D"/>
<path d="M5.25445 82.1074V65.3742H8.09547L16.7562 76.926V65.3742H18.2455V82.1074H16.7562L6.74379 68.7784V82.1074H5.25445ZM22.0627 73.1088C22.0627 72.2911 22.1921 71.7571 22.4507 71.5068C22.7177 71.2565 23.2726 71.1314 24.1153 71.1314H29.3467V72.0825H25.6046C25.1624 72.0825 24.8662 72.1451 24.716 72.2703C24.5742 72.3954 24.5032 72.6249 24.5032 72.9586V75.7245H28.4706V76.8009H24.5032V80.2927C24.5032 80.6264 24.5783 80.8559 24.7285 80.981C24.8787 81.0978 25.2291 81.1562 25.7798 81.1562H29.4719V82.1074H23.7273C23.1099 82.1074 22.676 81.9781 22.4257 81.7194C22.1837 81.4608 22.0627 80.931 22.0627 80.13V73.1088ZM37.9699 79.9798C37.6862 80.9977 37.3942 81.6694 37.0938 81.9948C36.7934 82.3118 36.3762 82.4704 35.8423 82.4704C35.3083 82.4704 34.8702 82.291 34.5281 81.9322C34.1944 81.5651 33.8982 80.9226 33.6395 80.0048L31.0238 71.1314H33.5144L36.2803 80.6932C36.3053 80.7683 36.347 80.8308 36.4055 80.8809C36.4639 80.931 36.5264 80.956 36.5932 80.956C36.6599 80.9477 36.7142 80.9226 36.7559 80.8809C36.8059 80.8392 36.8435 80.7808 36.8685 80.7057L37.9449 76.8259L36.2803 71.1314H38.7709L41.5368 80.6932C41.5618 80.7766 41.5994 80.8434 41.6494 80.8934C41.7078 80.9351 41.7621 80.956 41.8121 80.956C41.8789 80.956 41.9415 80.931 41.9999 80.8809C42.0583 80.8308 42.1 80.7683 42.125 80.6932L44.8909 71.1314H45.8922L43.3015 79.9798C43.0261 80.9143 42.7258 81.5651 42.4004 81.9322C42.075 82.291 41.6411 82.4704 41.0988 82.4704C40.5648 82.4704 40.1309 82.2952 39.7971 81.9447C39.4634 81.5859 39.1547 80.9393 38.871 80.0048L38.4079 78.4654L37.9699 79.9798ZM59.947 82.5204L56.4052 73.5719L53.001 82.5204L46.0549 65.3742H49.3339L53.8645 76.9761L55.7418 72.0575L53.001 65.3742H56.255L60.7355 76.7758L64.9657 65.3742H66.5802L59.947 82.5204ZM67.569 78.7282L66.5928 82.1074H65.5164L68.2073 72.4955C68.3574 71.9449 68.5994 71.5277 68.9332 71.244C69.2669 70.952 69.6757 70.806 70.1597 70.806C70.6686 70.806 71.1108 70.9687 71.4863 71.2941C71.8618 71.6111 72.1371 72.0617 72.3123 72.6457L75.1283 82.1074H72.6377L71.6365 78.7282H67.569ZM67.8193 77.7771H71.3862L70.0846 73.1213C70.0011 72.8627 69.9219 72.6958 69.8468 72.6207C69.7717 72.5373 69.6757 72.4955 69.5589 72.4955C69.4755 72.4955 69.4004 72.5414 69.3336 72.6332C69.2752 72.7166 69.2085 72.8835 69.1334 73.1338L67.8193 77.7771ZM84.8153 71.1314H85.8416L83.2258 79.9798C82.9588 80.9143 82.6585 81.5651 82.3247 81.9322C81.9993 82.291 81.5654 82.4704 81.0231 82.4704C80.4808 82.4704 80.0427 82.291 79.709 81.9322C79.3752 81.5734 79.079 80.9393 78.8204 80.0299L76.2046 71.1314H78.6952L81.4862 80.6932C81.5112 80.7683 81.5487 80.8308 81.5988 80.8809C81.6572 80.931 81.7156 80.956 81.774 80.956C81.8408 80.9477 81.895 80.9226 81.9367 80.8809C81.9868 80.8392 82.0243 80.7808 82.0494 80.7057L84.8153 71.1314ZM87.9441 73.1088C87.9441 72.2911 88.0735 71.7571 88.3321 71.5068C88.5991 71.2565 89.154 71.1314 89.9967 71.1314H95.2282V72.0825H91.486C91.0438 72.0825 90.7476 72.1451 90.5974 72.2703C90.4556 72.3954 90.3847 72.6249 90.3847 72.9586V75.7245H94.3521V76.8009H90.3847V80.2927C90.3847 80.6264 90.4598 80.8559 90.6099 80.981C90.7601 81.0978 91.1106 81.1562 91.6612 81.1562H95.3533V82.1074H89.6087C88.9913 82.1074 88.5574 81.9781 88.3071 81.7194C88.0651 81.4608 87.9441 80.931 87.9441 80.13V73.1088ZM109.033 74.2102V82.1074H105.929V65.3742H109.033V72.9836H116.029V65.3742H119.108V82.1074H116.029V74.2102H109.033ZM123.839 78.7282L122.862 82.1074H121.786L124.477 72.4955C124.627 71.9449 124.869 71.5277 125.203 71.244C125.536 70.952 125.945 70.806 126.429 70.806C126.938 70.806 127.38 70.9687 127.756 71.2941C128.131 71.6111 128.407 72.0617 128.582 72.6457L131.398 82.1074H128.907L127.906 78.7282H123.839ZM124.089 77.7771H127.656L126.354 73.1213C126.271 72.8627 126.191 72.6958 126.116 72.6207C126.041 72.5373 125.945 72.4955 125.828 72.4955C125.745 72.4955 125.67 72.5414 125.603 72.6332C125.545 72.7166 125.478 72.8835 125.403 73.1338L124.089 77.7771ZM135.966 82.1074H133.525V71.1314H137.931C139.299 71.1314 140.338 71.39 141.047 71.9073C141.756 72.4246 142.111 73.1755 142.111 74.1601C142.111 74.8777 141.898 75.4659 141.473 75.9248C141.047 76.3837 140.459 76.659 139.708 76.7508L142.549 82.1074H139.633L137.017 76.6256C137.902 76.609 138.548 76.4254 138.957 76.075C139.374 75.7245 139.583 75.1739 139.583 74.4229C139.583 73.6052 139.379 73.0045 138.97 72.6207C138.569 72.2285 137.943 72.0325 137.092 72.0325H135.966V82.1074ZM147.43 81.1562C147.597 81.1896 147.781 81.2147 147.981 81.2313C148.181 81.248 148.398 81.2564 148.632 81.2564C149.975 81.2564 150.943 80.9393 151.535 80.3052C152.128 79.6711 152.424 78.6406 152.424 77.2139C152.424 75.4784 152.09 74.181 151.423 73.3216C150.755 72.4622 149.75 72.0325 148.406 72.0325C148.29 72.0325 148.043 72.045 147.668 72.07C147.559 72.0784 147.48 72.0825 147.43 72.0825V81.1562ZM144.99 82.1074V64.1853H147.43V71.1314C147.764 71.1063 148.048 71.0896 148.281 71.0813C148.515 71.0646 148.69 71.0563 148.807 71.0563C150.709 71.0563 152.203 71.5694 153.287 72.5957C154.372 73.6136 154.914 74.9986 154.914 76.7508C154.914 78.3444 154.393 79.6377 153.35 80.6306C152.307 81.6151 150.947 82.1074 149.27 82.1074H144.99ZM161.998 81.6443C162.874 81.6443 163.583 81.1896 164.126 80.2802C164.668 79.3624 164.939 78.1525 164.939 76.6507C164.939 75.1405 164.668 73.9265 164.126 73.0087C163.583 72.0825 162.874 71.6195 161.998 71.6195C161.122 71.6195 160.409 72.0825 159.858 73.0087C159.316 73.9348 159.045 75.1488 159.045 76.6507C159.045 78.1442 159.316 79.3498 159.858 80.2676C160.409 81.1854 161.122 81.6443 161.998 81.6443ZM162.324 82.4704C160.672 82.4704 159.286 81.903 158.168 80.7683C157.059 79.6335 156.504 78.2068 156.504 76.488C156.504 74.8109 156.979 73.4467 157.931 72.3954C158.882 71.3358 160.125 70.806 161.66 70.806C163.329 70.806 164.718 71.3733 165.828 72.5081C166.946 73.6428 167.505 75.0654 167.505 76.7758C167.505 78.4612 167.025 79.8338 166.066 80.8934C165.115 81.9447 163.867 82.4704 162.324 82.4704ZM172.461 82.1074H170.021V71.1314H174.426C175.794 71.1314 176.833 71.39 177.542 71.9073C178.252 72.4246 178.606 73.1755 178.606 74.1601C178.606 74.8777 178.393 75.4659 177.968 75.9248C177.542 76.3837 176.954 76.659 176.203 76.7508L179.044 82.1074H176.128L173.512 76.6256C174.397 76.609 175.043 76.4254 175.452 76.075C175.869 75.7245 176.078 75.1739 176.078 74.4229C176.078 73.6052 175.874 73.0045 175.465 72.6207C175.064 72.2285 174.439 72.0325 173.587 72.0325H172.461V82.1074Z" fill="#2C419A"/>
</svg>
